# xmcd
# Track frame offsets:
# 150
# 17328
# 28703
# 53442
# 69456
# 88632
# 109285
# 127891
# 152860
# 168174
# 187451
# 202621
#
# Disc length: 2904 seconds
# Revision: 0
# Processed by: cddbd v1.4PL0 Copyright (c) Steve Scherf et al.
# Submitted via: VisiTrax 2.9.5.181 - For more info visit www.synapsa.com
#
DISCID=920b560c
DTITLE=Dr. Bendix - Life Is A Rocky Road
DYEAR=2001
DGENRE=Bluesrock
TTITLE0=Just A Little Boy
TTITLE1=Charisma Blues
TTITLE2=Sitting At The Dock Of The Bay
TTITLE3=Rush Up Mama
TTITLE4=A Feather From An Angel
TTITLE5=Happiest Man
TTITLE6=Life Is A Rocky Road
TTITLE7=I Ain`t Gonna dust My Broom no More
TTITLE8=Tears Of Life
TTITLE9=Misery Love
TTITLE10=Good Time Feeling
TTITLE11=She`s A Lady Of The Nite
EXTD=
EXTT0=
EXTT1=
EXTT2=
EXTT3=
EXTT4=
EXTT5=
EXTT6=
EXTT7=
EXTT8=
EXTT9=
EXTT10=
EXTT11=
PLAYORDER=
